<?xml version="1.0" encoding="iso-8859-1"?>
<!-- Generator: Adobe Illustrator 19.0.0, SVG Export Plug-In . SVG Version: 6.00 Build 0)  -->
<svg version="1.1" id="Capa_1" xmlns="http://www.w3.org/2000/svg" xmlns:xlink="http://www.w3.org/1999/xlink" x="0px" y="0px"
	 viewBox="0 0 512.004 512.004" style="enable-background:new 0 0 512.004 512.004;" xml:space="preserve">
<g>
	<g>
		<path d="M422.466,198.215L313.777,89.526c-3.328-3.337-8.738-3.337-12.066,0L68.921,322.307c-0.853,0.862-1.519,1.886-1.946,3.012
			L0.552,500.432c-1.186,3.14-0.427,6.69,1.946,9.062c1.63,1.63,3.806,2.5,6.033,2.5c1.016,0,2.039-0.179,3.029-0.546
			l175.104-66.423c1.126-0.427,2.15-1.092,3.004-1.946l232.798-232.798c1.604-1.596,2.5-3.772,2.5-6.033
			S424.07,199.819,422.466,198.215z M178.899,429.716L23.234,488.758l59.051-155.665l225.459-225.468l96.623,96.623L178.899,429.716
			z"/>
	</g>
</g>
<g>
	<g>
		<path d="M458.698,161.983L350.009,53.293c-3.328-3.337-8.738-3.337-12.066,0l-36.233,36.233c-3.337,3.337-3.337,8.73,0,12.066
			L410.4,210.281c1.664,1.664,3.849,2.5,6.033,2.5c2.185,0,4.369-0.836,6.033-2.5l36.233-36.233
			C462.035,170.712,462.035,165.319,458.698,161.983z M416.433,192.182l-96.614-96.623l24.158-24.166l96.614,96.623L416.433,192.182
			z"/>
	</g>
</g>
<g>
	<g>
		<path d="M502.722,85.242L426.75,9.27c-12.348-12.348-32.435-12.348-44.783,0l-44.023,44.023c-3.337,3.337-3.337,8.73,0,12.066
			l108.689,108.689c1.664,1.664,3.849,2.5,6.033,2.5c2.185,0,4.369-0.836,6.033-2.5l44.023-44.023
			C515.07,117.686,515.07,97.59,502.722,85.242z M490.656,117.959l-37.99,37.99l-96.623-96.623l37.99-37.99
			c5.692-5.692,14.959-5.692,20.651,0l75.972,75.972C496.347,103.009,496.347,112.267,490.656,117.959z"/>
	</g>
</g>
<g>
	<g>
		<path d="M386.242,161.983c-3.328-3.337-8.738-3.337-12.066,0L225.909,310.249c-3.337,3.337-3.337,8.73,0,12.066
			c1.664,1.664,3.849,2.5,6.033,2.5c2.185,0,4.369-0.836,6.033-2.5l148.267-148.267
			C389.578,170.712,389.578,165.319,386.242,161.983z"/>
	</g>
</g>
<g>
	<g>
		<path d="M207.784,340.44c-3.337-3.336-8.738-3.336-12.066,0l-54.34,54.34c-3.337,3.337-3.337,8.73,0,12.066
			c1.664,1.664,3.849,2.5,6.033,2.5c2.185,0,4.369-0.836,6.033-2.5l54.34-54.34C211.121,349.17,211.121,343.777,207.784,340.44z"/>
	</g>
</g>
<g>
	<g>
		<path d="M75.85,474.183l-38.042-38.042c-2.048-2.057-5.009-2.935-7.825-2.313c-2.825,0.606-5.163,2.611-6.187,5.316L0.552,500.432
			c-1.186,3.14-0.427,6.69,1.946,9.062c1.63,1.63,3.806,2.5,6.033,2.5c1.016,0,2.039-0.179,3.029-0.555l61.286-23.245
			c2.705-1.033,4.71-3.354,5.316-6.187C78.769,479.175,77.898,476.231,75.85,474.183z M23.234,488.758l11.844-31.215l19.371,19.371
			L23.234,488.758z"/>
	</g>
</g>
<g>
	<g>
		<path d="M187.663,431.764L80.219,324.329c-2.048-2.057-4.992-2.944-7.825-2.313c-2.833,0.606-5.163,2.611-6.187,5.316
			L0.552,500.432c-1.186,3.14-0.427,6.69,1.946,9.062c1.63,1.63,3.806,2.5,6.033,2.5c1.016,0,2.039-0.179,3.029-0.555
			l173.099-65.664c2.705-1.032,4.71-3.354,5.316-6.187C190.581,436.756,189.711,433.812,187.663,431.764z M23.234,488.758
			l54.255-143.027l88.772,88.772L23.234,488.758z"/>
	</g>
</g>
<g>
	<g>
		<path d="M207.682,195.621L69.536,57.466c-3.337-3.337-8.738-3.337-12.066,0c-3.336,3.337-3.336,8.73,0,12.066l138.155,138.155
			c1.664,1.664,3.849,2.5,6.033,2.5c2.176,0,4.369-0.836,6.025-2.5C211.018,204.351,211.018,198.957,207.682,195.621z"/>
	</g>
</g>
<g>
	<g>
		<path d="M511.451,500.432l-23.245-61.286c-1.024-2.705-3.354-4.71-6.187-5.316c-2.825-0.606-5.777,0.265-7.825,2.313
			l-38.042,38.042c-2.048,2.048-2.918,4.992-2.313,7.825c0.606,2.825,2.611,5.154,5.316,6.187l61.286,23.245
			c0.981,0.375,2.005,0.555,3.021,0.555c2.227,0,4.403-0.87,6.042-2.5C511.878,507.113,512.638,503.572,511.451,500.432z
			 M457.546,476.914l19.371-19.371l11.844,31.215L457.546,476.914z"/>
	</g>
</g>
<g>
	<g>
		<path d="M511.443,500.44l-65.655-173.099c-1.024-2.705-3.354-4.71-6.187-5.316s-5.777,0.273-7.825,2.313L324.332,431.772
			c-2.048,2.048-2.918,4.992-2.313,7.825c0.606,2.825,2.611,5.154,5.316,6.187l173.107,65.656c0.981,0.375,2.005,0.555,3.021,0.555
			c2.227,0,4.403-0.87,6.033-2.492C511.87,507.122,512.629,503.58,511.443,500.44z M345.734,434.503l88.772-88.772l54.255,143.027
			L345.734,434.503z"/>
	</g>
</g>
<g>
	<g>
		<path d="M262.039,141.264L135.942,15.167c-9.668-9.668-26.522-9.668-36.181,0L15.178,99.749c-4.83,4.83-7.492,11.255-7.492,18.091
			s2.662,13.261,7.492,18.091l126.097,126.097c1.664,1.664,3.849,2.5,6.033,2.5c2.185,0,4.369-0.828,6.033-2.5L262.039,153.33
			C265.376,149.993,265.376,144.6,262.039,141.264z M147.317,243.945L27.253,123.881c-1.604-1.613-2.492-3.746-2.492-6.025
			c0-2.278,0.887-4.42,2.492-6.025l84.582-84.582c1.604-1.604,3.738-2.492,6.016-2.492c2.27,0,4.412,0.879,6.025,2.5L243.94,147.322
			L147.317,243.945z"/>
	</g>
</g>
<g>
	<g>
		<path d="M511.443,500.44l-66.423-175.113c-0.427-1.135-1.092-2.159-1.946-3.012l-72.354-72.354c-3.328-3.336-8.738-3.336-12.066,0
			L249.964,358.65c-1.604,1.596-2.5,3.772-2.5,6.033s0.896,4.437,2.509,6.033l72.363,72.354c0.853,0.853,1.877,1.519,3.004,1.946
			l175.104,66.423c0.981,0.375,2.005,0.555,3.021,0.555c2.227,0,4.403-0.87,6.033-2.492
			C511.87,507.122,512.629,503.58,511.443,500.44z M333.096,429.716l-65.033-65.033l96.623-96.623l65.033,65.033l59.042,155.665
			L333.096,429.716z"/>
	</g>
</g>
<g>
	<g>
		<path d="M390.031,377.961l-73.66-73.66c-3.337-3.336-8.738-3.336-12.066,0c-3.336,3.337-3.336,8.73,0,12.066l73.66,73.66
			c1.664,1.664,3.849,2.5,6.033,2.5c2.185,0,4.369-0.828,6.033-2.5C393.367,386.691,393.367,381.298,390.031,377.961z"/>
	</g>
</g>
<g>
</g>
<g>
</g>
<g>
</g>
<g>
</g>
<g>
</g>
<g>
</g>
<g>
</g>
<g>
</g>
<g>
</g>
<g>
</g>
<g>
</g>
<g>
</g>
<g>
</g>
<g>
</g>
<g>
</g>
</svg>
