<?xml version="1.0" encoding="utf-8"?>
<!-- Generator: Adobe Illustrator 22.1.0, SVG Export Plug-In . SVG Version: 6.00 Build 0)  -->
<svg version="1.1" id="Livello_1" xmlns="http://www.w3.org/2000/svg" xmlns:xlink="http://www.w3.org/1999/xlink" x="0px" y="0px"
	 viewBox="0 0 300 300" style="enable-background:new 0 0 300 300;" xml:space="preserve">
<style type="text/css">
	.st0{fill:#333333;}
</style>
<path class="st0" d="M0,0v300h300V0H0z M228.8,207.6c0,11.8-9.5,21.3-21.3,21.3h-33.9l0.1-56.5h19.5c1.8,0,3.2-1.3,3.4-3.1l2.2-18.2
	c0.2-2.1-1.4-3.9-3.4-3.9h-21.8V132c0-6.9,1.9-11.6,11.8-11.6l9.2,0c1.9,0,3.5-1.6,3.5-3.5v-15.4c0-1.9-1.6-3.5-3.5-3.5h-15
	c-18.2,0-30.7,11.1-30.7,31.5v17.6h-14.7c-1.9,0-3.5,1.6-3.5,3.5l0.1,18.2c0,1.9,1.6,3.5,3.5,3.5h14.7l-0.1,56.5H92
	c-11.8,0-21.3-9.5-21.3-21.3V92.1c0-11.8,9.5-21.3,21.3-21.3h115.5c11.8,0,21.3,9.5,21.3,21.3V207.6z"/>
</svg>
