<?xml version="1.0" encoding="utf-8"?>
<!-- Generator: Adobe Illustrator 22.1.0, SVG Export Plug-In . SVG Version: 6.00 Build 0)  -->
<svg version="1.1" id="Livello_1" xmlns="http://www.w3.org/2000/svg" xmlns:xlink="http://www.w3.org/1999/xlink" x="0px" y="0px"
	 viewBox="0 0 300 300" style="enable-background:new 0 0 300 300;" xml:space="preserve">
<style type="text/css">
	.st0{fill:#333333;}
</style>
<g>
	<path class="st0" d="M150.3,197.3c-5.1,0-10.2-1.9-14-5.8l-47.7-47.7v72.3h123.6h0v-72.3l-47.7,47.7
		C160.5,195.4,155.4,197.3,150.3,197.3z"/>
	<polygon class="st0" points="150.3,149.4 216,83.7 84.6,83.7 	"/>
	<path class="st0" d="M0,0v300h300V0H0z M251.8,209.4c0,10.9-8.9,19.9-19.9,19.9H68.7c-10.9,0-19.9-8.9-19.9-19.9V90.3
		c0-10.9,8.8-19.8,19.7-19.8c0,0,0.1,0,0.1,0c0,0,0,0,0,0h163.3c0,0,0,0,0,0c0,0,0.1,0,0.1,0c10.9,0.1,19.7,8.9,19.7,19.8V209.4z"/>
</g>
</svg>
