<?xml version="1.0" encoding="utf-8"?>
<!-- Generator: Adobe Illustrator 22.1.0, SVG Export Plug-In . SVG Version: 6.00 Build 0)  -->
<svg version="1.1" id="Livello_1" xmlns="http://www.w3.org/2000/svg" xmlns:xlink="http://www.w3.org/1999/xlink" x="0px" y="0px"
	 viewBox="0 0 300 300" style="enable-background:new 0 0 300 300;" xml:space="preserve">
<style type="text/css">
	.st0{fill:#3C3C3D;}
</style>
<g>
	<path class="st0" d="M182.6,79.7h-64.8c-20.8,0-37.8,17-37.8,37.8v64.8c0,20.8,17,37.8,37.8,37.8h64.8c20.8,0,37.8-17,37.8-37.8
		v-64.8C220.4,96.6,203.5,79.7,182.6,79.7z M150.3,193.1c-23.8,0-43.2-19.3-43.2-43.2s19.3-43.2,43.2-43.2s43.2,19.3,43.2,43.2
		S174.1,193.1,150.3,193.1z M196.7,109.2c-3.2,0-5.8-2.6-5.8-5.8s2.6-5.8,5.8-5.8c3.2,0,5.8,2.6,5.8,5.8S199.9,109.2,196.7,109.2z"
		/>
	<path class="st0" d="M1,0v300h300V0H1z M236.6,182.3c0,29.8-24.2,54-54,54h-64.8c-29.8,0-54-24.2-54-54v-64.8c0-29.8,24.2-54,54-54
		h64.8c29.8,0,54,24.2,54,54V182.3z"/>
	<ellipse transform="matrix(0.3827 -0.9239 0.9239 0.3827 -45.7058 231.3299)" class="st0" cx="150.3" cy="149.9" rx="27" ry="27"/>
</g>
</svg>
