<?xml version="1.0" encoding="utf-8"?>
<!-- Generator: Adobe Illustrator 22.1.0, SVG Export Plug-In . SVG Version: 6.00 Build 0)  -->
<svg version="1.1" id="Livello_1" xmlns="http://www.w3.org/2000/svg" xmlns:xlink="http://www.w3.org/1999/xlink" x="0px" y="0px"
	 viewBox="0 0 510.2 510.2" style="enable-background:new 0 0 510.2 510.2;" xml:space="preserve">
<style type="text/css">
	.st0{stroke:#000000;stroke-width:5.2433;stroke-miterlimit:10;}
</style>
<g>
	<path class="st0" d="M480.8,114.8c0-44.2-36.5-80.1-81.4-80.1S318,70.6,318,114.8c0,42.4,33.7,77.2,76.2,79.9v25.9
		c0,2.8,2.4,5.1,5.2,5.1c2.8,0,5.2-2.3,5.2-5.1v-25.9C447.1,192.1,480.8,157.4,480.8,114.8z M399.4,184.7c-39.2,0-71-31.3-71-69.9
		s31.8-69.9,71-69.9s71,31.3,71,69.9S438.6,184.7,399.4,184.7z"/>
	<path class="st0" d="M399.4,241.9c-2.8,0-5.2,2.3-5.2,5.1v66.8c0,11.3-9.2,20.3-20.6,20.3h-1.7c-5.5,0-10.7-2.2-14.6-6
		c-3.9-3.8-6-8.9-6-14.4l0.3-33.1c0-8.3-3.3-16.1-9.2-21.9c-6.1-5.9-14-8.9-22.5-8.7c-17,0.3-30.2,13.8-30.2,30.5v36.2
		c0,18.1-15.1,32.9-33.5,32.9s-33.5-14.9-33.5-33.1V204.1c0-11.8-9.7-21.3-21.7-21.3h-2.5c-1.1-0.8-2.4-1.3-3.6-1.3l-0.9-18.9
		c26.2,10.2,40.3,33.7,40.3,34.1c0.9,1.6,2.7,2.5,4.6,2.5c0.4,0,0.8,0,1.1-0.1l65.6-14.6c2.4-0.5,4.1-2.5,4.1-4.9V57.1
		c0-2.2-1.4-4.2-3.5-4.9l-65.6-21.6c-1.9-0.6-4.1,0-5.5,1.6c-0.3,0.3-16.7,18.9-44.7,25.7l-6.8-42v-0.1c-1.3-6.8-7-11.4-14-11.4
		c-7,0-12.7,4.8-14,11.4v0.1l-6.8,42c-27.9-6.9-44.5-25.6-44.7-25.7c-1.4-1.6-3.6-2.2-5.5-1.6L33,52.3c-2.1,0.6-3.5,2.7-3.5,4.9v82
		c0,2.8,2.4,5.1,5.2,5.1s5.2-2.3,5.2-5.1V60.7l27-8.8v129.6l-27-6v-10c0-2.8-2.4-5.1-5.2-5.1s-5.2,2.3-5.2,5.1v14
		c0,2.4,1.7,4.5,4.1,4.9l65.6,14.6c2.2,0.5,4.6-0.5,5.7-2.4c0.1-0.3,14.2-23.8,40.3-34.1l-0.9,18.9c-3.5,0.1-6.3,2.9-6.3,6.4
		c0,3.3,2.5,5.9,5.7,6.2l-9.9,212.2c-0.1,2.8,2.1,5.2,4.9,5.4c0.1,0,0.1,0,0.3,0c2.7,0,5-2.2,5.2-4.9l9.9-212.7h31.2l12.2,263h-55.4
		l1.1-24c0.1-2.8-2.1-5.2-4.9-5.4c-2.8-0.1-5.3,2.1-5.5,4.9l-1.1,24.5h-3.3c-12.2,0-22.2,9.8-22.2,21.8v5.9c0,12,10,21.8,22.2,21.8
		H211c12.2,0,22.2-9.8,22.2-21.8v-5.9c0-12-10-21.8-22.2-21.8h-3.3l-12.2-263c1.1-0.1,2.2-0.5,3.1-1.1h2.5c6.3,0,11.3,4.9,11.3,11.1
		v112.4c0,23.8,19.7,43.2,43.9,43.2s43.9-19.4,43.9-43.2v-36.2c0-11.1,8.8-20,20.1-20.3c5.5-0.1,10.9,1.9,14.9,5.9
		c4.1,3.8,6.3,9.1,6.3,14.7l-0.3,33.1c0,8.1,3.1,16,9,21.7c5.8,5.9,13.7,9.1,22,9.1h1.7c17.1,0,31-13.7,31-30.5v-66.8
		C404.6,244.2,402.2,241.9,399.4,241.9z M222.7,479.2v5.9c0,6.4-5.3,11.6-11.8,11.6h-82.6c-6.5,0-11.8-5.2-11.8-11.6v-5.9
		c0-6.4,5.3-11.6,11.8-11.6h8.2h66.3h8.2C217.5,467.6,222.7,472.8,222.7,479.2z M165.9,17.7c0.5-2.8,3-3,3.8-3c0.8,0,3.1,0.3,3.8,3
		l6.8,42.3c-3.3,0.3-6.9,0.6-10.5,0.6c-3.6,0-7.1-0.3-10.5-0.6L165.9,17.7z M97.9,188.5l-20.7-4.6V48.6l21.6-7
		c7.7,7.5,32.9,29.2,70.8,29.2s63.2-21.7,70.8-29.2l21.6,7v34.2c0,2.8,2.4,5.1,5.2,5.1c2.8,0,5.2-2.3,5.2-5.1v-31l27,8.8v114.7
		l-27,6V109c0-2.8-2.4-5.1-5.2-5.1c-2.8,0-5.2,2.3-5.2,5.1v74.7l-20.6,4.6c-6.9-10.2-31-40.6-71.9-40.6S104.8,178.2,97.9,188.5z
		 M154.7,181.5l1.1-21.9c4.4-0.9,9.1-1.4,14-1.4c4.9,0,9.6,0.5,14,1.6l1.1,21.9h-30.1V181.5z"/>
</g>
</svg>
