<?xml version="1.0" encoding="utf-8"?>
<!-- Generator: Adobe Illustrator 22.1.0, SVG Export Plug-In . SVG Version: 6.00 Build 0)  -->
<svg version="1.1" id="Livello_1" xmlns="http://www.w3.org/2000/svg" xmlns:xlink="http://www.w3.org/1999/xlink" x="0px" y="0px"
	 viewBox="0 0 512 640" style="enable-background:new 0 0 512 640;" xml:space="preserve">
<style type="text/css">
	.st0{stroke:#000000;stroke-width:6;stroke-miterlimit:10;}
</style>
<g>
	<path class="st0" d="M512.2,152.4c0-51-41.4-92.4-92.4-92.4s-92.4,41.4-92.4,92.4c0,48.9,38.3,89.1,86.5,92.2v29.9
		c0,3.2,2.7,5.9,5.9,5.9c3.2,0,5.9-2.7,5.9-5.9v-29.9C473.9,241.5,512.2,201.5,512.2,152.4z M419.8,233c-44.5,0-80.6-36.1-80.6-80.6
		s36.1-80.6,80.6-80.6s80.6,36.1,80.6,80.6S464.3,233,419.8,233z"/>
	<path class="st0" d="M419.8,299c-3.2,0-5.9,2.7-5.9,5.9v77c0,13-10.5,23.4-23.4,23.4h-1.9c-6.3,0-12.2-2.5-16.6-6.9
		s-6.8-10.3-6.8-16.6l0.3-38.2c0-9.6-3.7-18.6-10.5-25.3c-6.9-6.8-15.9-10.3-25.5-10c-19.3,0.4-34.3,15.9-34.3,35.2v41.7
		c0,20.9-17.1,38-38,38s-38-17.2-38-38.2V255.4c0-13.6-11-24.6-24.6-24.6h-2.8c-1.2-0.9-2.7-1.5-4.1-1.5l-1-21.8
		c29.8,11.8,45.7,38.9,45.8,39.3c1,1.9,3.1,2.9,5.2,2.9c0.4,0,0.9,0,1.3-0.1l74.5-16.8c2.7-0.6,4.6-2.9,4.6-5.7V85.8
		c0-2.5-1.6-4.9-4-5.6l-74.5-24.9c-2.2-0.7-4.7,0-6.3,1.8c-0.3,0.3-19,21.8-50.8,29.6l-7.7-48.5v-0.1c-1.5-7.8-8-13.1-15.9-13.1
		s-14.4,5.5-15.9,13.1v0.1l-7.7,48.5c-31.7-8-50.5-29.5-50.8-29.6c-1.6-1.8-4.1-2.5-6.3-1.8L3.8,80.2c-2.4,0.7-4,3.1-4,5.6v94.6
		c0,3.2,2.7,5.9,5.9,5.9s5.9-2.7,5.9-5.9V90l30.6-10.2v149.5l-30.6-6.9v-11.5c0-3.2-2.7-5.9-5.9-5.9s-5.9,2.7-5.9,5.9v16.2
		c0,2.8,1.9,5.2,4.6,5.7l74.5,16.8c2.5,0.6,5.2-0.6,6.5-2.8c0.1-0.3,16.1-27.5,45.8-39.3l-1,21.8c-4,0.1-7.1,3.4-7.1,7.4
		c0,3.8,2.8,6.8,6.5,7.2l-11.2,244.8c-0.1,3.2,2.4,6,5.6,6.2c0.1,0,0.1,0,0.3,0c3.1,0,5.7-2.5,5.9-5.6L141.4,244h35.4l13.8,303.4
		h-62.9l1.3-27.7c0.1-3.2-2.4-6-5.6-6.2c-3.2-0.1-6,2.4-6.2,5.6l-1.3,28.3h-3.7c-13.8,0-25.2,11.3-25.2,25.2v6.8
		c0,13.8,11.3,25.2,25.2,25.2h93.7c13.8,0,25.2-11.3,25.2-25.2v-6.8c0-13.8-11.3-25.2-25.2-25.2h-3.7L188.4,244
		c1.3-0.1,2.5-0.6,3.5-1.3h2.8c7.1,0,12.8,5.7,12.8,12.8v129.6c0,27.4,22.4,49.8,49.8,49.8s49.8-22.4,49.8-49.8v-41.7
		c0-12.8,10-23.1,22.8-23.4c6.3-0.1,12.4,2.2,16.9,6.8c4.6,4.4,7.1,10.5,7.1,16.9l-0.3,38.2c0,9.4,3.5,18.4,10.2,25
		c6.6,6.8,15.5,10.5,25,10.5h1.9c19.4,0,35.2-15.8,35.2-35.2v-77C425.7,301.6,423,299,419.8,299z M219.2,572.7v6.8
		c0,7.4-6,13.4-13.4,13.4H112c-7.4,0-13.4-6-13.4-13.4v-6.8c0-7.4,6-13.4,13.4-13.4h9.3h75.3h9.3
		C213.3,559.3,219.2,565.3,219.2,572.7z M154.7,40.3c0.6-3.2,3.4-3.5,4.3-3.5c0.9,0,3.5,0.3,4.3,3.5l7.7,48.8
		c-3.8,0.4-7.8,0.7-11.9,0.7s-8.1-0.3-11.9-0.7L154.7,40.3z M77.5,237.3L54,232V76l24.5-8.1c8.7,8.7,37.3,33.7,80.4,33.7
		s71.7-25,80.4-33.7l24.5,8.1v39.5c0,3.2,2.7,5.9,5.9,5.9c3.2,0,5.9-2.7,5.9-5.9V79.8L306.2,90v132.3l-30.6,6.9v-83.5
		c0-3.2-2.7-5.9-5.9-5.9c-3.2,0-5.9,2.7-5.9,5.9v86.2l-23.4,5.3c-7.8-11.8-35.2-46.8-81.6-46.8S85.3,225.5,77.5,237.3z M142,229.3
		l1.2-25.3c5-1,10.3-1.6,15.9-1.6s10.9,0.6,15.9,1.8l1.2,25.3H142V229.3z"/>
</g>
</svg>
