<?xml version="1.0" encoding="utf-8"?>
<!-- Generator: Adobe Illustrator 22.1.0, SVG Export Plug-In . SVG Version: 6.00 Build 0)  -->
<svg version="1.1" id="Livello_1" xmlns="http://www.w3.org/2000/svg" xmlns:xlink="http://www.w3.org/1999/xlink" x="0px" y="0px"
	 viewBox="0 0 54 54" style="enable-background:new 0 0 54 54;" xml:space="preserve">
<g>
	<g>
		<g>
			<path d="M26.9,2.1c8.8,0,15.9,7.1,15.9,15.9v3.9h1.9v-4c0-4.7-1.9-9.2-5.2-12.5S31.7,0.2,27,0.2c-9.8,0-17.7,8-17.7,17.8v4h1.8
				v-4C11.1,9.2,18.1,2.1,26.9,2.1z"/>
		</g>
		<rect x="9.3" y="37.3" width="1.8" height="20.1"/>
		<rect x="42.8" y="37.3" width="1.9" height="20.1"/>
		<path d="M9.1,32.1c0,0.7,0.3,1.4,0.8,1.9s1.2,0.8,1.9,0.8h2.5c0.7,0,1.4-0.3,1.9-0.8s0.8-1.2,0.8-1.9v-5.9c0-1.4-1.1-2.6-2.6-2.6
			l-2.6-0.1c-0.7,0-1.4,0.3-1.9,0.8s-0.8,1.2-0.8,1.9V32.1z M11.1,26.1c0-0.2,0-0.4,0.2-0.6c0.2-0.1,0.4-0.2,0.6-0.2h2.5
			c0.4,0,0.8,0.4,0.8,0.8V32c0,0.2,0,0.4-0.2,0.6c-0.2,0.1-0.4,0.2-0.6,0.2h-2.5c-0.4,0-0.8-0.3-0.8-0.8V26.1z"/>
		<path d="M36.9,32.2c0,1.4,1.1,2.6,2.6,2.6H42c0.7,0,1.4-0.3,1.9-0.8s0.8-1.2,0.8-1.9v-5.9c0-1.4-1.1-2.6-2.6-2.6h-2.5
			c-0.7,0-1.4,0.3-1.9,0.8s-0.8,1.2-0.8,1.9V32.2z M38.8,26.1c0-0.4,0.4-0.8,0.8-0.8h2.5c0.2,0,0.4,0,0.6,0.2
			c0.1,0.2,0.2,0.4,0.2,0.6V32c0,0.2,0,0.4-0.2,0.6c-0.2,0.1-0.4,0.2-0.6,0.2h-2.5c-0.2,0-0.4,0-0.6-0.2c-0.1-0.2-0.2-0.4-0.2-0.6
			V26.1z"/>
		<rect x="16.8" y="28.6" width="20.4" height="1.9"/>
		<path d="M21.8,25l1.5,1.1c0.9-1,2.2-1.6,3.6-1.6c1.4,0,2.6,0.6,3.6,1.6l1.6-1.1c-1.2-1.4-3.1-2.3-5.1-2.3S23.1,23.6,21.8,25z"/>
		<path d="M30.6,33c-0.9,0.9-2.2,1.5-3.4,1.7c-1.4,0-2.6-0.6-3.6-1.6L22,34.2c1.2,1.4,3.1,2.3,5.1,2.3c1.8,0,3.5-0.7,4.8-2
			c0.1-0.2,0.2-0.3,0.3-0.4L30.6,33z"/>
	</g>
	<g>
		<rect x="37" y="27.8" width="1.1" height="3.5"/>
	</g>
	<g>
		<rect x="15.9" y="27.8" width="1" height="3.5"/>
	</g>
</g>
</svg>
