<?xml version="1.0" encoding="utf-8"?>
<!-- Generator: Adobe Illustrator 22.1.0, SVG Export Plug-In . SVG Version: 6.00 Build 0)  -->
<svg version="1.1" id="Livello_1" xmlns="http://www.w3.org/2000/svg" xmlns:xlink="http://www.w3.org/1999/xlink" x="0px" y="0px"
	 viewBox="0 0 54 54" style="enable-background:new 0 0 54 54;" xml:space="preserve">
<style type="text/css">
	.st0{fill:#FFFFFF;}
</style>
<g>
	<g>
		<g>
			<g>
				<path d="M8.9,25.1V18C8.9,8,17-0.2,27-0.2c4.8,0,9.4,1.9,12.8,5.3s5.3,8,5.3,12.8v7.1h-2.6V18c0-8.6-7-15.5-15.5-15.5
					S11.5,9.4,11.5,18v7.1H8.9z"/>
				<path class="st0" d="M27,0.2c4.7,0,9.2,1.9,12.5,5.2s5.2,7.8,5.2,12.5v6.8h-1.9V18c0-8.8-7.1-15.9-15.9-15.9S11.1,9.2,11.1,18
					v6.8H9.3V18C9.3,8.2,17.2,0.2,27,0.2L27,0.2 M27-0.5C16.8-0.5,8.5,7.8,8.5,18v7.5h3.4V18c0-8.4,6.8-15.1,15.1-15.1
					S42.1,9.6,42.1,18v7.5h3.4V18C45.5,7.7,37.2-0.5,27-0.5L27-0.5L27-0.5z"/>
			</g>
		</g>
		<g>
			<g>
				<rect x="8.9" y="34.2" width="2.6" height="23.6"/>
				<path class="st0" d="M11.1,34.5v22.9H9.3V34.5H11.1 M11.9,33.8H8.5v24.4h3.4V33.8L11.9,33.8z"/>
			</g>
		</g>
		<g>
			<g>
				<rect x="42.5" y="34.2" width="2.6" height="23.6"/>
				<path class="st0" d="M44.7,34.5v22.9h-1.9V34.5H44.7 M45.5,33.8h-3.4v24.4h3.4V33.8L45.5,33.8z"/>
			</g>
		</g>
		<g>
			<g>
				<g>
					<path d="M11.9,35.1c-0.8,0-1.6-0.3-2.1-0.9c-0.6-0.6-0.9-1.3-0.9-2.1v-5.9c0-0.8,0.3-1.6,0.9-2.1c0.6-0.6,1.3-0.9,2.1-0.9h2.5
						c1.7,0,3,1.4,3,3v5.9c0,0.8-0.3,1.6-0.9,2.1c-0.6,0.6-1.3,0.9-2.1,0.9L11.9,35.1L11.9,35.1z M11.9,25.8c-0.2,0-0.4,0.2-0.4,0.4
						v5.9c0,0.2,0.2,0.4,0.4,0.4h2.5c0.1,0,0.2-0.1,0.3-0.1c0.1-0.1,0.1-0.2,0.1-0.3v-5.9c0-0.2-0.2-0.4-0.4-0.4L11.9,25.8
						L11.9,25.8z"/>
					<path class="st0" d="M14.4,23.6c1.5,0,2.6,1.2,2.6,2.6v5.9c0,0.7-0.3,1.4-0.8,1.9c-0.5,0.5-1.2,0.8-1.9,0.8h-2.5
						c-0.7,0-1.4-0.3-1.9-0.8s-0.8-1.2-0.8-1.9v-5.9c0-0.7,0.3-1.4,0.8-1.9c0.5-0.5,1.2-0.8,1.9-0.8L14.4,23.6 M11.9,32.8h2.5
						c0.2,0,0.4-0.1,0.6-0.2c0.2-0.2,0.2-0.4,0.2-0.6v-5.9c0-0.4-0.4-0.8-0.8-0.8h-2.5c-0.2,0-0.4,0.1-0.6,0.2
						c-0.2,0.2-0.2,0.4-0.2,0.6v5.9C11.1,32.5,11.5,32.8,11.9,32.8 M11.9,22.8c-0.9,0-1.8,0.4-2.4,1c-0.7,0.7-1,1.5-1,2.4v5.9
						c0,1.9,1.5,3.4,3.4,3.4h2.5c0.9,0,1.8-0.4,2.4-1c0.6-0.7,1-1.5,1-2.4v-5.9c0-1.9-1.5-3.4-3.4-3.4L11.9,22.8
						C11.9,22.8,11.9,22.8,11.9,22.8L11.9,22.8z M11.9,32.1v-5.9h2.5v5.9l0,0L11.9,32.1L11.9,32.1z"/>
				</g>
			</g>
			<g>
				<g>
					<path d="M39.6,35.1c-1.7,0-3-1.4-3-3v-5.9c0-0.8,0.3-1.6,0.9-2.1c0.6-0.6,1.3-0.9,2.1-0.9h2.5c1.7,0,3,1.4,3,3v5.9
						c0,0.8-0.3,1.6-0.9,2.1s-1.3,0.9-2.1,0.9C42.1,35.1,39.6,35.1,39.6,35.1z M39.6,25.8c-0.2,0-0.4,0.2-0.4,0.4v5.9
						c0,0.1,0.1,0.2,0.1,0.3c0.1,0.1,0.2,0.1,0.3,0.1h2.5c0.1,0,0.1,0,0.2-0.1c0.1,0,0.1-0.1,0.1-0.1c0.1-0.1,0.1-0.2,0.1-0.3v-5.9
						c0-0.2-0.2-0.4-0.4-0.4L39.6,25.8z"/>
					<path class="st0" d="M42.1,23.6L42.1,23.6c1.5,0,2.6,1.2,2.6,2.6v5.9c0,0.7-0.3,1.4-0.8,1.9c-0.5,0.5-1.2,0.8-1.9,0.8h-2.5
						c-1.5,0-2.6-1.2-2.6-2.6v-5.9c0-0.7,0.3-1.4,0.8-1.9c0.5-0.5,1.2-0.8,1.9-0.8H42.1 M39.6,32.8h2.5c0.2,0,0.4-0.1,0.6-0.2
						c0.2-0.2,0.2-0.4,0.2-0.6v-5.9c0-0.2-0.1-0.4-0.2-0.6c-0.2-0.2-0.4-0.2-0.6-0.2l0,0h-2.5c-0.4,0-0.8,0.4-0.8,0.8v5.9
						c0,0.2,0.1,0.4,0.2,0.6C39.2,32.8,39.4,32.8,39.6,32.8 M42.1,22.8h-2.5c-0.9,0-1.8,0.4-2.4,1c-0.7,0.7-1,1.5-1,2.4v5.9
						c0,1.9,1.5,3.4,3.4,3.4h2.5c0.9,0,1.8-0.4,2.4-1c0.7-0.7,1-1.5,1-2.4v-5.9C45.5,24.3,44,22.8,42.1,22.8L42.1,22.8z M39.6,32.1
						v-5.9h2.5v5.9l0,0H39.6L39.6,32.1z"/>
				</g>
			</g>
			<g>
				<g>
					<rect x="16.4" y="28.2" width="21.1" height="2.6"/>
					<path class="st0" d="M37.2,28.6v1.9H16.8v-1.9L37.2,28.6 M37.9,27.8H16.1v3.4h21.9V27.8L37.9,27.8z"/>
				</g>
			</g>
			<g>
				<g>
					<path d="M30.6,26.6c-0.9-1.1-2.2-1.7-3.5-1.7s-2.7,0.6-3.5,1.7l-2.2-1.5c1.4-1.8,3.5-2.8,5.7-2.8s4.3,1.1,5.7,2.8L30.6,26.6z"
						/>
					<path class="st0" d="M27,22.7c2,0,3.9,0.9,5.1,2.3l-1.6,1.1c-1-1-2.2-1.6-3.6-1.6c-1.4,0-2.7,0.6-3.6,1.6L21.8,25
						C23.1,23.6,25,22.7,27,22.7 M27,22c-2.5,0-4.8,1.2-6.2,3.3l2.8,1.9c0.8-1.2,2.1-1.8,3.5-1.8c1.4,0,2.7,0.7,3.5,1.8l2.8-1.9
						C31.8,23.2,29.5,22,27,22L27,22z"/>
				</g>
			</g>
			<g>
				<g>
					<path d="M27,36.7c-2.2,0-4.3-1.1-5.7-2.8l2.2-1.5c0.9,1.1,2.2,1.7,3.5,1.7s2.7-0.6,3.5-1.7l2.2,1.5c-0.2,0.3-0.4,0.5-0.6,0.7
						C30.8,36,28.9,36.7,27,36.7L27,36.7z"/>
					<path class="st0" d="M30.6,33l1.6,1.1c-0.1,0.1-0.2,0.2-0.3,0.4c-1.3,1.3-3,2-4.8,2c-2,0-3.9-0.9-5.1-2.3l1.6-1.1
						c1,1,2.2,1.6,3.6,1.6C28.4,34.5,29.7,33.9,30.6,33 M30.5,32c-0.8,1.2-2.1,1.8-3.5,1.8c-1.4,0-2.7-0.7-3.5-1.8l-2.8,1.9
						c1.4,2,3.8,3.3,6.2,3.3l0,0c2,0,4-0.8,5.4-2.2c0.3-0.3,0.6-0.7,0.9-1L30.5,32L30.5,32z"/>
				</g>
			</g>
		</g>
	</g>
	<g>
		<rect x="37" y="27.8" width="1.1" height="3.5"/>
	</g>
	<g>
		<rect x="15.9" y="27.8" width="1" height="3.5"/>
	</g>
</g>
</svg>
