<?xml version="1.0" encoding="utf-8"?>
<!-- Generator: Adobe Illustrator 22.1.0, SVG Export Plug-In . SVG Version: 6.00 Build 0)  -->
<svg version="1.1" id="Livello_1" xmlns="http://www.w3.org/2000/svg" xmlns:xlink="http://www.w3.org/1999/xlink" x="0px" y="0px"
	 viewBox="0 0 96 120" style="enable-background:new 0 0 96 120;" xml:space="preserve">
<style type="text/css">
	.st0{fill:#FFFFFF;}
</style>
<g>
	<g>
		<g>
			<path d="M11.8,54.4V40.2C11.8,20.3,28.1,4,48,4c9.6,0,18.7,3.8,25.6,10.6s10.6,15.9,10.6,25.6l0,14.2H79V40.2
				c0-17.1-13.9-31-31-31c-17.1,0-31,13.9-31,31v14.2H11.8z"/>
			<path class="st0" d="M48,4.8c9.4,0,18.3,3.7,25,10.4c6.7,6.7,10.4,15.6,10.4,25l0,13.5h-3.7V40.2C79.7,22.7,65.5,8.5,48,8.5
				c-17.5,0-31.7,14.2-31.7,31.7v13.5l-3.7,0V40.2C12.6,20.7,28.5,4.8,48,4.8L48,4.8 M48,3.3c-20.4,0-36.9,16.6-36.9,36.9v15l6.7,0
				v-15C17.8,23.5,31.3,10,48,10s30.2,13.6,30.2,30.2v15h6.7l0-15C84.9,19.8,68.4,3.3,48,3.3C48,3.3,48,3.3,48,3.3L48,3.3z"/>
		</g>
	</g>
	<g>
		<g>
			<rect x="11.8" y="72.5" width="5.2" height="47.1"/>
			<path class="st0" d="M16.3,73.2v45.6h-3.7V73.2H16.3 M17.8,71.7h-6.7v48.6h6.7V71.7L17.8,71.7z"/>
		</g>
	</g>
	<g>
		<g>
			<rect x="79" y="72.5" width="5.2" height="47.1"/>
			<path class="st0" d="M83.4,73.2v45.6h-3.7V73.2H83.4 M84.9,71.7h-6.7v48.6h6.7V71.7L84.9,71.7z"/>
		</g>
	</g>
	<g>
		<g>
			<g>
				<path d="M17.8,74.3c-1.6,0-3.1-0.6-4.2-1.7s-1.7-2.6-1.7-4.2V56.6c0-1.6,0.6-3.1,1.7-4.2c1.1-1.1,2.6-1.7,4.2-1.7h5
					c3.3,0,6,2.7,6,6v11.7c0,1.6-0.6,3.1-1.7,4.2c-1.1,1.1-2.6,1.7-4.2,1.7H17.8z M17.8,55.8c-0.4,0-0.8,0.3-0.8,0.8v11.7
					c0,0.4,0.3,0.8,0.8,0.8h5c0.2,0,0.4-0.1,0.5-0.2s0.2-0.3,0.2-0.5l0-11.7c0-0.4-0.3-0.8-0.8-0.8H17.8z"/>
				<path class="st0" d="M22.8,51.4c2.9,0,5.2,2.3,5.2,5.2v11.7c0,1.4-0.5,2.7-1.5,3.7c-1,1-2.3,1.5-3.7,1.5h-5
					c-1.4,0-2.7-0.5-3.7-1.5c-1-1-1.5-2.3-1.5-3.7V56.6c0-1.4,0.5-2.7,1.5-3.7c1-1,2.3-1.5,3.7-1.5H22.8 M17.8,69.8h5
					c0.4,0,0.8-0.2,1.1-0.4c0.3-0.3,0.4-0.7,0.4-1.1l0-11.7c0-0.8-0.7-1.5-1.5-1.5l-5,0c-0.4,0-0.8,0.2-1.1,0.4
					c-0.3,0.3-0.4,0.7-0.4,1.1v11.7C16.3,69.1,17,69.8,17.8,69.8 M17.8,49.9c-1.8,0-3.5,0.7-4.7,2c-1.3,1.3-2,3-2,4.7v11.7
					c0,3.7,3,6.7,6.7,6.7h5c1.8,0,3.5-0.7,4.7-2s2-3,2-4.7V56.6c0-3.7-3-6.7-6.7-6.7H17.8C17.8,49.9,17.8,49.9,17.8,49.9L17.8,49.9z
					 M17.8,68.3V56.6l5,0l0,11.7c0,0,0,0,0,0H17.8L17.8,68.3z"/>
			</g>
		</g>
		<g>
			<g>
				<path d="M73.2,74.3c-3.3,0-6-2.7-6-6l0-11.7c0-1.6,0.6-3.1,1.7-4.2s2.6-1.7,4.2-1.7l5,0c3.3,0,6,2.7,6,6v11.7
					c0,1.6-0.6,3.1-1.7,4.2c-1.1,1.1-2.6,1.7-4.2,1.7H73.2z M73.2,55.8c-0.4,0-0.8,0.3-0.8,0.8l0,11.7c0,0.2,0.1,0.4,0.2,0.5
					s0.3,0.2,0.5,0.2h5c0.1,0,0.2,0,0.3-0.1c0.1,0,0.1-0.1,0.2-0.1c0.1-0.1,0.2-0.3,0.2-0.5l0-11.7c0-0.4-0.3-0.8-0.8-0.8L73.2,55.8
					z"/>
				<path class="st0" d="M78.2,51.4L78.2,51.4c2.9,0,5.2,2.3,5.2,5.2v11.7c0,1.4-0.5,2.7-1.5,3.7c-1,1-2.3,1.5-3.7,1.5l-5,0
					c-2.9,0-5.2-2.3-5.2-5.2l0-11.7c0-1.4,0.5-2.7,1.5-3.7c1-1,2.3-1.5,3.7-1.5L78.2,51.4 M73.2,69.8h5c0.4,0,0.8-0.2,1.1-0.4
					c0.3-0.3,0.4-0.7,0.4-1.1l0-11.7c0-0.4-0.2-0.8-0.4-1.1c-0.3-0.3-0.7-0.4-1.1-0.4c0,0,0,0,0,0l-5,0c-0.8,0-1.5,0.7-1.5,1.5
					l0,11.7c0,0.4,0.2,0.8,0.4,1.1C72.4,69.7,72.8,69.8,73.2,69.8 M78.2,49.9l-5,0c-1.8,0-3.5,0.7-4.7,2c-1.3,1.3-2,3-2,4.7l0,11.7
					c0,3.7,3,6.7,6.7,6.7l5,0c1.8,0,3.5-0.7,4.7-2c1.3-1.3,2-3,2-4.7V56.6C84.9,52.9,81.9,49.9,78.2,49.9L78.2,49.9z M73.2,68.3
					l0-11.7l5,0l0,11.7c0,0,0,0,0,0H73.2L73.2,68.3z"/>
			</g>
		</g>
		<g>
			<g>
				<rect x="26.9" y="60.7" width="42.1" height="5.2"/>
				<path class="st0" d="M68.3,61.4v3.7H27.7v-3.7H68.3 M69.8,59.9H26.2v6.7h43.6V59.9L69.8,59.9z"/>
			</g>
		</g>
		<g>
			<g>
				<path d="M55.1,57.5c-1.7-2.1-4.3-3.3-7-3.3c-2.7,0-5.3,1.2-7,3.3l-4.3-3c2.7-3.5,6.9-5.5,11.3-5.5c4.4,0,8.6,2.1,11.3,5.5
					L55.1,57.5z"/>
				<path class="st0" d="M48,49.7c3.9,0,7.7,1.7,10.2,4.6l-3.1,2.1c-1.9-1.9-4.4-3.1-7.2-3.1c-2.7,0-5.3,1.1-7.2,3.1l-3.1-2.1
					C40.3,51.4,44.1,49.7,48,49.7 M48,48.2c-4.9,0-9.6,2.4-12.4,6.5l5.5,3.8c1.6-2.3,4.1-3.6,6.9-3.6c2.7,0,5.3,1.3,6.9,3.6l5.5-3.8
					C57.6,50.6,52.9,48.2,48,48.2L48,48.2z"/>
			</g>
		</g>
		<g>
			<g>
				<path d="M48,77.6c-4.4,0-8.6-2.1-11.3-5.5l4.3-3c1.7,2.1,4.3,3.3,7,3.3c2.7,0,5.3-1.2,7-3.3l4.3,3c-0.4,0.5-0.8,0.9-1.2,1.3
					C55.5,76.1,51.8,77.6,48,77.6L48,77.6z"/>
				<path class="st0" d="M55.2,70.1l3.1,2.1c-0.2,0.2-0.4,0.4-0.6,0.7c-2.5,2.5-6,4-9.6,4c-3.9,0-7.7-1.7-10.2-4.6l3.1-2.1
					c1.9,1.9,4.4,3.1,7.2,3.1C50.7,73.2,53.3,72,55.2,70.1 M54.9,68.1c-1.6,2.3-4.1,3.6-6.9,3.6c-2.7,0-5.3-1.3-6.9-3.6l-5.5,3.8
					c2.8,4,7.5,6.5,12.4,6.5c0,0,0,0,0,0c4,0,7.9-1.6,10.7-4.4c0.6-0.6,1.2-1.3,1.7-2L54.9,68.1L54.9,68.1z"/>
			</g>
		</g>
	</g>
</g>
<g>
	<rect x="68.5" y="59.8" width="1.6" height="7"/>
</g>
<g>
	<rect x="25.9" y="59.8" width="1.6" height="7"/>
</g>
</svg>
